<?xml version="1.0" ?>
<!-- Uploaded to: SVG Repo, www.svgrepo.com, Generator: SVG Repo Mixer Tools -->
<svg width="800px" height="800px" viewBox="0 0 24 24" version="1.1" xml:space="preserve" xmlns="http://www.w3.org/2000/svg" xmlns:xlink="http://www.w3.org/1999/xlink">
<style type="text/css">
	.st0{opacity:0.2;fill:none;stroke:#000000;stroke-width:5.000000e-02;stroke-miterlimit:10;}
</style>
<g id="Layer_Grid"/>
<g id="Layer_2">
<path d="M14.9,3.8C14.9,3.8,14.9,3.8,14.9,3.8l-2.4-1.6c-0.3-0.2-0.8-0.2-1.1,0L9.1,3.8C8.4,4.2,8,4.9,8,5.7V7C7.4,7,7,7.4,7,8   c0,0.5,0.4,0.9,0.8,1l-1.2,7.5l-0.1,0.6c0,0,0,0,0,0L6.1,20H6c-0.6,0-1,0.4-1,1s0.4,1,1,1h1h10h1c0.6,0,1-0.4,1-1s-0.4-1-1-1h-0.1   l-1.1-7.3l-0.2-1.2c0,0,0,0,0,0L16.2,9C16.6,8.9,17,8.5,17,8c0-0.6-0.4-1-1-1V5.7C16,4.9,15.6,4.2,14.9,3.8z M10,5.7   c0-0.1,0.1-0.3,0.2-0.3L12,4.2l1.8,1.2C13.9,5.5,14,5.6,14,5.7V7h-4V5.7z M9.9,9h4.3l0.3,1.9l-5,1L9.9,9z M9.1,14l5.6-1.1l0.1,0.6   l0.2,1.3L8.8,16L9.1,14z M8.2,20l0.3-1.9l6.9-1.4l0.5,3.2H8.2z"/>
<path d="M5,8c0.6,0,1-0.4,1-1S5.6,6,5,6H4C3.4,6,3,6.4,3,7s0.4,1,1,1H5z"/>
<path d="M6,3H3C2.4,3,2,3.4,2,4s0.4,1,1,1h3c0.6,0,1-0.4,1-1S6.6,3,6,3z"/>
<path d="M20,6h-1c-0.6,0-1,0.4-1,1s0.4,1,1,1h1c0.6,0,1-0.4,1-1S20.6,6,20,6z"/>
<path d="M21,3h-3c-0.6,0-1,0.4-1,1s0.4,1,1,1h3c0.6,0,1-0.4,1-1S21.6,3,21,3z"/>
</g>
</svg>